<?xml version="1.0" encoding="UTF-8" standalone="no"?>
<!-- Created with Inkscape (http://www.inkscape.org/) -->

<svg
   width="1200"
   height="675"
   viewBox="0 0 317.5 178.59375"
   version="1.1"
   id="svg1"
   xml:space="preserve"
   xmlns:xlink="http://www.w3.org/1999/xlink"
   xmlns="http://www.w3.org/2000/svg"
   xmlns:svg="http://www.w3.org/2000/svg"><defs
     id="defs1"><linearGradient
       id="swatch12"><stop
         style="stop-color:#54c164;stop-opacity:1;"
         offset="0"
         id="stop12" /></linearGradient><linearGradient
       id="swatch46"><stop
         style="stop-color:#3c8f49;stop-opacity:1;"
         offset="0"
         id="stop46" /></linearGradient><linearGradient
       xlink:href="#swatch46"
       id="linearGradient69"
       gradientUnits="userSpaceOnUse"
       x1="676.27155"
       y1="503.30307"
       x2="766.35339"
       y2="503.30307" /><linearGradient
       xlink:href="#swatch12"
       id="linearGradient70"
       gradientUnits="userSpaceOnUse"
       x1="676.27094"
       y1="456.79547"
       x2="800.07941"
       y2="456.79547" /></defs><g
     id="layer1"
     transform="translate(-838.73238,-346.28258)"><g
       id="g1"
       transform="translate(162.46146,-55.224638)"
       style="fill:#3c8f49;fill-opacity:1"><g
         id="g2"
         transform="translate(17.075186,31.362797)"><path
           id="path182"
           d="m 751.94486,401.50744 c -9.07232,-0.037 -18.16077,4.50973 -23.59185,13.32994 -4.44291,-0.40154 -9.18577,0.65074 -13.28187,3.14606 -0.19958,-0.063 -0.386,-0.13961 -0.59325,-0.19482 -4.15507,-1.10691 -9.55386,-1.05265 -18.86138,-1.05265 h -19.34559 v 65.96083 h 19.34559 c 9.30003,0 14.60525,0.0958 17.57412,0.88677 2.96891,0.7909 3.92802,1.85954 5.95519,5.37073 h 4.32997 c 2.02719,-3.51118 2.98632,-4.57983 5.95519,-5.37073 2.9689,-0.79091 8.2741,-0.88677 17.57413,-0.88677 h 19.34765 v -39.4255 c 2.20602,-0.96535 3.74913,-3.16655 3.74913,-5.7273 0,-3.44997 -2.79975,-6.25026 -6.24975,-6.25026 -3.45,0 -6.25026,2.80029 -6.25026,6.25026 0,2.50579 1.54418,4.73444 3.75119,5.71697 v 34.43562 h -14.34796 c -9.30752,0 -14.70629,-0.0522 -18.86139,1.05472 -1.68013,0.44759 -3.08976,1.17369 -4.33203,2.12493 v -30.09738 c 2.20619,-0.96528 3.74964,-3.16645 3.74964,-5.7273 0,-3.45 -2.80029,-6.25027 -6.25026,-6.25027 -3.45,0 -6.24975,2.80027 -6.24975,6.25027 0,2.50564 1.54386,4.73436 3.75067,5.71696 v 30.10876 c -1.24297,-0.95168 -2.65343,-1.67825 -4.3341,-2.12597 -4.15507,-1.10691 -9.55386,-1.05472 -18.86138,-1.05472 h -14.34589 v -55.96092 h 14.34589 c 6.72774,0 11.3425,0.0532 14.51694,0.37982 -1.47176,1.66752 -2.74296,3.6089 -3.71398,5.84874 -7.32247,0.29361 -14.97884,6.11679 -14.97893,15.62488 7e-5,8.62387 6.9222,15.71687 15.45539,15.71687 h 8.74003 v -6.75204 c -1.872,-1.44809 -3.19335,-3.59102 -3.6034,-5.92574 -1.13666,-5.27566 3.48028,-10.98266 8.91574,-10.99416 2.569,-0.0997 5.14687,0.93508 6.97425,2.73472 2.07735,1.89312 3.06302,4.85146 2.72128,7.64191 -0.25024,2.51187 -1.53668,5.05239 -3.65611,6.58823 v 6.70708 h 31.18931 v -14.25184 c -1.82688,-1.43176 -3.15378,-3.51515 -3.57704,-5.80533 -1.22654,-5.3583 3.42117,-11.09522 8.89145,-11.12232 2.83288,-0.10439 5.65332,1.14533 7.49618,3.29489 3.5787,3.79719 2.75416,10.63592 -1.45882,13.66997 v 14.21463 h 8.61911 c 12.11056,0 21.93148,-10.0526 21.93148,-22.32628 3e-5,-14.50454 -12.76479,-23.55019 -24.66413,-21.98006 -5.36652,-8.84578 -14.40883,-13.45529 -23.4704,-13.4922 z" /><path
           id="path1"
           d="M 721.01573 494.52236 L 728.01531 511.83655 L 729.994 511.83655 L 737.04318 494.52236 L 734.00099 494.52236 L 729.0323 507.15673 L 724.10753 494.52236 L 721.01573 494.52236 z M 739.51693 494.52236 L 739.51693 511.83655 L 742.3612 511.83655 L 742.3612 504.49023 L 743.09449 504.49023 L 749.01454 511.83655 L 752.6014 511.83655 L 746.51909 504.4649 C 747.3917 504.40816 748.17764 504.21647 748.86623 503.87218 C 749.6907 503.45994 750.3258 502.88252 750.77102 502.1405 C 751.23273 501.39847 751.46349 500.52481 751.46349 499.51895 C 751.46349 498.56257 751.23273 497.71333 750.77102 496.9713 C 750.3258 496.21279 749.6907 495.61874 748.86623 495.19002 C 748.04176 494.74481 747.08545 494.52236 745.99715 494.52236 L 742.3612 494.52236 L 739.51693 494.52236 z M 754.7036 494.52236 L 754.7036 511.83655 L 757.54787 511.83655 L 766.35353 511.83655 L 766.35353 509.23929 L 757.54787 509.23929 L 757.54787 504.24321 L 765.51224 504.24321 L 765.51224 501.74466 L 757.54787 501.74466 L 757.54787 497.11962 L 766.22951 497.11962 L 766.22951 494.52236 L 757.54787 494.52236 L 754.7036 494.52236 z M 676.27169 494.8195 L 676.27169 511.83655 L 678.07727 511.83655 L 678.07727 498.31696 L 688.04514 511.83655 L 689.33136 511.83655 L 689.33136 494.8195 L 687.50098 494.8195 L 687.50098 508.33702 L 677.55792 494.8195 L 676.27169 494.8195 z M 742.3612 496.99559 L 745.87365 496.99559 C 746.74759 496.99559 747.42324 497.24299 747.90143 497.73767 C 748.37962 498.23235 748.61922 498.84251 748.61922 499.56805 C 748.61922 500.37603 748.37182 501.01113 747.87714 501.47284 C 747.39894 501.91805 746.72278 502.1405 745.84884 502.1405 L 742.3612 502.1405 L 742.3612 496.99559 z M 698.26002 499.96389 C 697.17171 499.96389 696.19098 500.23622 695.31704 500.78037 C 694.4431 501.30803 693.75031 502.03357 693.23913 502.95699 C 692.74445 503.86391 692.49706 504.89453 692.49706 506.04879 C 692.49706 507.18656 692.74445 508.20886 693.23913 509.11578 C 693.75031 510.0227 694.4431 510.74824 695.31704 511.29239 C 696.19098 511.82006 697.18002 512.08356 698.28482 512.08356 C 699.15876 512.08356 699.942 511.91049 700.63455 511.56421 C 701.34359 511.20145 701.91269 510.69835 702.34142 510.05526 C 702.38703 509.98938 702.42295 509.91806 702.46493 509.85011 L 702.46493 511.83655 L 704.1966 511.83655 L 704.1966 500.21142 L 702.46493 500.21142 L 702.46493 502.19321 C 702.42291 502.12669 702.38708 502.05645 702.34142 501.99219 C 701.91269 501.3491 701.34359 500.85432 700.63455 500.50804 C 699.942 500.14527 699.15045 499.96389 698.26002 499.96389 z M 712.72993 499.96389 C 711.64163 499.96389 710.66038 500.23622 709.78644 500.78037 C 708.9125 501.30803 708.21971 502.03357 707.70854 502.95699 C 707.21386 503.86391 706.96646 504.89453 706.96646 506.04879 C 706.96646 507.18656 707.21386 508.20886 707.70854 509.11578 C 708.21971 510.0227 708.9125 510.74824 709.78644 511.29239 C 710.66038 511.82006 711.64943 512.08356 712.75422 512.08356 C 713.62816 512.08356 714.41139 511.91049 715.10395 511.56421 C 715.813 511.20145 716.3821 510.69835 716.81082 510.05526 C 716.85643 509.98938 716.89235 509.91806 716.93433 509.85011 L 716.93433 511.83655 L 718.66601 511.83655 L 718.66601 500.21142 L 716.93433 500.21142 L 716.93433 502.19321 C 716.89231 502.12669 716.85648 502.05645 716.81082 501.99219 C 716.3821 501.3491 715.813 500.85432 715.10395 500.50804 C 714.41139 500.14527 713.62036 499.96389 712.72993 499.96389 z M 698.53235 501.59635 C 699.34033 501.59635 700.04093 501.78605 700.63455 502.1653 C 701.24466 502.52808 701.7145 503.04728 702.04428 503.72335 C 702.39056 504.38293 702.56415 505.15004 702.56415 506.02398 C 702.56415 507.34313 702.19306 508.4065 701.45104 509.21449 C 700.7255 510.02247 699.76089 510.4263 698.55716 510.4263 C 697.73268 510.4263 696.99883 510.23712 696.35574 509.85786 C 695.71265 509.4786 695.20124 508.95888 694.82198 508.2993 C 694.45921 507.63972 694.27783 506.88143 694.27783 506.02398 C 694.27783 505.16653 694.45921 504.40773 694.82198 503.74815 C 695.20124 503.07209 695.70434 502.54456 696.33094 502.1653 C 696.97403 501.78605 697.70788 501.59635 698.53235 501.59635 z M 713.00175 501.59635 C 713.80974 501.59635 714.51033 501.78605 715.10395 502.1653 C 715.71406 502.52808 716.18441 503.04728 716.5142 503.72335 C 716.86048 504.38293 717.03355 505.15004 717.03355 506.02398 C 717.03355 507.34313 716.66246 508.4065 715.92044 509.21449 C 715.1949 510.02247 714.23028 510.4263 713.02656 510.4263 C 712.20208 510.4263 711.46823 510.23712 710.82514 509.85786 C 710.18205 509.4786 709.67064 508.95888 709.29138 508.2993 C 708.92862 507.63972 708.74723 506.88143 708.74723 506.02398 C 708.74723 505.16653 708.92862 504.40773 709.29138 503.74815 C 709.67064 503.07209 710.17374 502.54456 710.80034 502.1653 C 711.44342 501.78605 712.17728 501.59635 713.00175 501.59635 z " /></g><g
         id="g5"
         style="fill:#4a4a4a;fill-opacity:1"><path
           d="m 835.66983,468.58295 v -15.87326 h 1.19972 l 0.4845,2.00723 v 13.86603 z m 10.98208,0 -10.03615,-13.61225 0.25379,-2.26101 10.01307,13.61224 z m 0,0 -0.50758,-1.91495 v -13.95831 h 1.7073 v 15.87326 z m 9.75927,0.23071 q -1.56887,0 -2.86088,-0.76136 -1.26894,-0.76136 -2.0303,-2.05337 -0.7383,-1.29201 -0.7383,-2.88395 0,-1.56887 0.7383,-2.83781 0.76136,-1.26894 2.0303,-2.00723 1.29201,-0.76136 2.86088,-0.76136 1.59194,0 2.86087,0.73829 1.26894,0.73829 2.00723,2.0303 0.76137,1.26894 0.76137,2.83781 0,1.61501 -0.76137,2.90702 -0.73829,1.26894 -2.00723,2.0303 -1.26893,0.76136 -2.86087,0.76136 z m 0,-1.56887 q 1.15358,0 2.0303,-0.53064 0.89979,-0.53065 1.40736,-1.47659 0.53065,-0.94593 0.53065,-2.12258 0,-1.17665 -0.53065,-2.07645 -0.50757,-0.92286 -1.40736,-1.45351 -0.87672,-0.53064 -2.0303,-0.53064 -1.13051,0 -2.03031,0.53064 -0.89979,0.53065 -1.40736,1.45351 -0.50758,0.8998 -0.50758,2.07645 0,1.19972 0.50758,2.14566 0.50757,0.92286 1.40736,1.45351 0.8998,0.53064 2.03031,0.53064 z m 9.48244,1.33816 v -15.41183 h 1.61501 v 15.41183 z m -2.74552,-9.39014 v -1.45352 h 7.08298 v 1.45352 z m 13.91217,9.62085 q -1.63808,0 -2.93009,-0.73829 -1.29201,-0.73829 -2.05337,-2.0303 -0.73829,-1.29201 -0.73829,-2.90702 0,-1.59194 0.73829,-2.86088 0.73829,-1.29201 2.00723,-2.0303 1.26894,-0.73829 2.8378,-0.73829 1.47659,0 2.6071,0.66908 1.15358,0.66907 1.79958,1.86879 0.66908,1.17666 0.66908,2.72245 0,0.18458 -0.0231,0.43836 -0.0231,0.23072 -0.0923,0.55372 h -9.39014 v -1.38429 h 8.51342 l -0.57679,0.50757 q 0.0231,-1.19972 -0.41529,-2.05337 -0.41529,-0.87672 -1.2228,-1.33815 -0.78443,-0.48451 -1.91494,-0.48451 -1.17665,0 -2.05337,0.50758 -0.87672,0.50757 -1.3843,1.43044 -0.4845,0.89979 -0.4845,2.14566 0,1.24586 0.50757,2.1918 0.53065,0.94593 1.45352,1.47658 0.94593,0.53065 2.16873,0.53065 0.99207,0 1.82265,-0.34608 0.83058,-0.36914 1.40737,-1.08436 l 1.03822,1.06129 q -0.76136,0.89979 -1.89187,1.40737 -1.10744,0.4845 -2.39945,0.4845 z m 13.01239,0 q -1.24587,0 -2.23794,-0.50757 -0.99208,-0.50758 -1.63809,-1.3843 -0.62293,-0.89979 -0.76136,-2.07644 v -3.39153 q 0.13843,-1.19972 0.78443,-2.07644 0.64601,-0.89979 1.63809,-1.3843 1.01515,-0.4845 2.21487,-0.4845 1.49965,0 2.69938,0.76136 1.19972,0.73829 1.89187,2.0303 0.71522,1.26894 0.71522,2.88395 0,1.59194 -0.69215,2.86088 -0.69215,1.26894 -1.91494,2.0303 -1.19973,0.73829 -2.69938,0.73829 z m -5.6064,-0.23071 v -16.3347 h 1.61501 v 8.14428 l -0.323,2.60709 0.323,2.67631 v 2.90702 z m 5.32954,-1.31508 q 1.15358,0 2.0303,-0.50758 0.87672,-0.53065 1.36123,-1.45351 0.50757,-0.94594 0.50757,-2.14566 0,-1.22279 -0.50757,-2.14566 -0.48451,-0.92286 -1.36123,-1.45351 -0.87672,-0.53065 -2.00723,-0.53065 -1.13051,0 -2.00723,0.53065 -0.85365,0.53065 -1.33815,1.45351 -0.4845,0.92287 -0.4845,2.14566 0,1.19972 0.4845,2.14566 0.4845,0.92286 1.33815,1.45351 0.85365,0.50758 1.98416,0.50758 z m 13.08158,1.54579 q -1.56887,0 -2.86088,-0.76136 -1.26894,-0.76136 -2.0303,-2.05337 -0.73829,-1.29201 -0.73829,-2.88395 0,-1.56887 0.73829,-2.83781 0.76136,-1.26894 2.0303,-2.00723 1.29201,-0.76136 2.86088,-0.76136 1.59194,0 2.86088,0.73829 1.26893,0.73829 2.00722,2.0303 0.76137,1.26894 0.76137,2.83781 0,1.61501 -0.76137,2.90702 -0.73829,1.26894 -2.00722,2.0303 -1.26894,0.76136 -2.86088,0.76136 z m 0,-1.56887 q 1.15358,0 2.0303,-0.53064 0.89979,-0.53065 1.40737,-1.47659 0.53064,-0.94593 0.53064,-2.12258 0,-1.17665 -0.53064,-2.07645 -0.50758,-0.92286 -1.40737,-1.45351 -0.87672,-0.53064 -2.0303,-0.53064 -1.13051,0 -2.0303,0.53064 -0.8998,0.53065 -1.40737,1.45351 -0.50758,0.8998 -0.50758,2.07645 0,1.19972 0.50758,2.14566 0.50757,0.92286 1.40737,1.45351 0.89979,0.53064 2.0303,0.53064 z m 13.10468,1.56887 q -1.56887,0 -2.86088,-0.76136 -1.26894,-0.76136 -2.0303,-2.05337 -0.73829,-1.29201 -0.73829,-2.88395 0,-1.56887 0.73829,-2.83781 0.76136,-1.26894 2.0303,-2.00723 1.29201,-0.76136 2.86088,-0.76136 1.59194,0 2.86088,0.73829 1.26894,0.73829 2.00723,2.0303 0.76136,1.26894 0.76136,2.83781 0,1.61501 -0.76136,2.90702 -0.73829,1.26894 -2.00723,2.0303 -1.26894,0.76136 -2.86088,0.76136 z m 0,-1.56887 q 1.15358,0 2.0303,-0.53064 0.89979,-0.53065 1.40737,-1.47659 0.53065,-0.94593 0.53065,-2.12258 0,-1.17665 -0.53065,-2.07645 -0.50758,-0.92286 -1.40737,-1.45351 -0.87672,-0.53064 -2.0303,-0.53064 -1.13051,0 -2.0303,0.53064 -0.89979,0.53065 -1.40737,1.45351 -0.50757,0.8998 -0.50757,2.07645 0,1.19972 0.50757,2.14566 0.50758,0.92286 1.40737,1.45351 0.89979,0.53064 2.0303,0.53064 z m 15.18113,1.33816 -5.53718,-5.56026 5.4449,-5.2834 h 2.00723 l -5.9294,5.69869 0.0692,-0.92286 6.0909,6.06783 z m -6.99069,0 v -16.3347 h 1.61501 v 16.3347 z m 20.83364,0.23071 q -1.54579,0 -2.76859,-0.73829 -1.22279,-0.76136 -1.93801,-2.0303 -0.69215,-1.26894 -0.69215,-2.86088 0,-1.61501 0.69215,-2.88395 0.71522,-1.29201 1.93801,-2.0303 1.2228,-0.76136 2.74552,-0.76136 1.24587,0 2.21488,0.50757 0.99207,0.48451 1.59194,1.3843 0.62293,0.87672 0.76136,2.05337 v 3.39153 q -0.13843,1.17665 -0.76136,2.07644 -0.59987,0.89979 -1.59194,1.40737 -0.96901,0.4845 -2.19181,0.4845 z m 0.25379,-1.54579 q 1.68423,0 2.69938,-1.13051 1.03822,-1.13051 1.03822,-2.97624 0,-1.22279 -0.4845,-2.14566 -0.46144,-0.94593 -1.31508,-1.45351 -0.83058,-0.53065 -1.96109,-0.53065 -1.15358,0 -2.05337,0.53065 -0.87672,0.53065 -1.40737,1.47658 -0.50758,0.92287 -0.50758,2.12259 0,1.19972 0.50758,2.12259 0.53065,0.92286 1.43044,1.45351 0.89979,0.53065 2.05337,0.53065 z m 3.64531,1.31508 v -2.90702 l 0.32301,-2.67631 -0.32301,-2.60709 v -2.65324 h 1.61502 v 10.84366 z m 8.21347,0.23071 q -0.87672,0 -1.68423,-0.23071 -0.8075,-0.25379 -1.47658,-0.69215 -0.646,-0.43836 -1.13051,-1.03822 l 1.03823,-1.0613 q 0.646,0.78444 1.45351,1.17665 0.83057,0.36915 1.84572,0.36915 1.08437,0 1.68423,-0.41529 0.62293,-0.41529 0.62293,-1.15358 0,-0.69215 -0.43836,-1.08436 -0.43836,-0.39222 -1.1305,-0.62294 -0.66908,-0.23071 -1.43044,-0.43836 -0.76137,-0.23071 -1.45351,-0.55372 -0.69215,-0.34607 -1.13051,-0.94593 -0.41529,-0.59986 -0.41529,-1.56887 0,-0.92286 0.43836,-1.59194 0.46143,-0.69215 1.29201,-1.06129 0.85365,-0.39222 2.00723,-0.39222 1.22279,0 2.21487,0.43836 0.99208,0.43836 1.59194,1.29201 l -1.03822,1.03822 q -0.4845,-0.62293 -1.22279,-0.94593 -0.71522,-0.34608 -1.61502,-0.34608 -1.03822,0 -1.59194,0.41529 -0.53064,0.39222 -0.53064,1.03822 0,0.62294 0.43836,0.99208 0.43836,0.34607 1.10743,0.57679 0.69215,0.20765 1.45351,0.43836 0.76137,0.20765 1.45351,0.57679 0.69215,0.34608 1.10744,0.96901 0.43836,0.59986 0.43836,1.63808 0,1.45351 -1.06129,2.33023 -1.03822,0.85365 -2.83781,0.85365 z m 16.12704,0 q -1.5458,0 -2.76859,-0.73829 -1.22279,-0.76136 -1.93801,-2.0303 -0.69215,-1.26894 -0.69215,-2.86088 0,-1.61501 0.69215,-2.88395 0.71522,-1.29201 1.93801,-2.0303 1.22279,-0.76136 2.74552,-0.76136 1.24587,0 2.21487,0.50757 0.99208,0.48451 1.59194,1.3843 0.62294,0.87672 0.76137,2.05337 v 3.39153 q -0.13843,1.17665 -0.76137,2.07644 -0.59986,0.89979 -1.59194,1.40737 -0.969,0.4845 -2.1918,0.4845 z m 0.25379,-1.54579 q 1.68423,0 2.69938,-1.13051 1.03822,-1.13051 1.03822,-2.97624 0,-1.22279 -0.4845,-2.14566 -0.46144,-0.94593 -1.31509,-1.45351 -0.83057,-0.53065 -1.96108,-0.53065 -1.15358,0 -2.05337,0.53065 -0.87673,0.53065 -1.40737,1.47658 -0.50758,0.92287 -0.50758,2.12259 0,1.19972 0.50758,2.12259 0.53064,0.92286 1.43044,1.45351 0.89979,0.53065 2.05337,0.53065 z m 3.64531,1.31508 v -2.90702 l 0.323,-2.67631 -0.323,-2.60709 v -2.65324 h 1.61501 v 10.84366 z"
           id="path2" /><path
           id="path3"
           d="M 899.97044 475.12701 L 899.97044 491.73892 L 902.50827 491.73892 L 902.50827 475.12701 L 899.97044 475.12701 z M 834.19306 475.58848 L 840.72238 491.73892 L 842.56826 491.73892 L 849.14357 475.58848 L 846.30602 475.58848 L 841.67064 487.37433 L 837.07713 475.58848 L 834.19306 475.58848 z M 852.3966 475.58848 C 851.96593 475.58848 851.60467 475.73498 851.31243 476.02722 C 851.03557 476.31946 850.89695 476.68072 850.89695 477.11139 C 850.89695 477.54206 851.03557 477.90332 851.31243 478.19556 C 851.60467 478.4878 851.96593 478.63429 852.3966 478.63429 C 852.84265 478.63429 853.20443 478.4878 853.48129 478.19556 C 853.75815 477.90332 853.89625 477.54206 853.89625 477.11139 C 853.89625 476.68072 853.75815 476.31946 853.48129 476.02722 C 853.20443 475.73498 852.84265 475.58848 852.3966 475.58848 z M 867.6241 476.04995 L 867.6241 480.66466 L 864.97051 480.66466 L 864.97051 482.9715 L 867.6241 482.9715 L 867.6241 491.73892 L 870.16193 491.73892 L 870.16193 482.9715 L 872.815 482.9715 L 872.815 480.66466 L 870.16193 480.66466 L 870.16193 476.04995 L 867.6241 476.04995 z M 861.92522 480.43367 C 860.66398 480.43367 859.71829 480.87211 859.08767 481.74883 C 859.07118 481.77191 859.0572 481.7972 859.04116 481.82066 L 859.04116 480.66466 L 856.50333 480.66466 L 856.50333 491.73892 L 859.04116 491.73892 L 859.04116 485.57857 C 859.04116 484.62495 859.27219 483.92501 859.73362 483.47896 C 860.19506 483.03291 860.77948 482.81027 861.487 482.81027 C 861.81 482.81027 862.0946 482.85596 862.3407 482.94824 C 862.58679 483.04053 862.80943 483.19438 863.00939 483.40971 L 864.67079 481.70284 C 864.28626 481.25679 863.87092 480.93334 863.42487 480.73339 C 862.97882 480.53344 862.47894 480.43367 861.92522 480.43367 z M 891.22627 480.43367 C 890.2265 480.43367 889.31915 480.69516 888.50396 481.21811 C 887.70415 481.72569 887.06564 482.41775 886.58883 483.29447 C 886.1274 484.15581 885.89688 485.13248 885.89688 486.22453 C 885.89688 487.30121 886.1274 488.27786 886.58883 489.15458 C 887.06564 490.01592 887.70415 490.70063 888.50396 491.2082 C 889.31915 491.71578 890.2265 491.9694 891.22627 491.9694 C 892.07223 491.9694 892.82573 491.79244 893.48712 491.43868 C 893.93202 491.19036 894.30514 490.87773 894.6178 490.51109 L 894.6178 491.73892 L 897.15563 491.73892 L 897.15563 480.66466 L 894.6178 480.66466 L 894.6178 481.90851 C 894.2957 481.53898 893.91447 481.22866 893.46386 480.98764 C 892.81786 480.61849 892.07223 480.43367 891.22627 480.43367 z M 851.12795 480.66466 L 851.12795 491.73892 L 853.66578 491.73892 L 853.66578 480.66466 L 851.12795 480.66466 z M 874.38389 480.66466 L 874.38389 487.10148 C 874.38389 488.0551 874.58395 488.90101 874.98386 489.63931 C 875.39914 490.36222 875.96833 490.93141 876.69124 491.3467 C 877.42953 491.76198 878.26757 491.9694 879.20582 491.9694 C 880.15945 491.9694 880.998 491.76934 881.72091 491.36943 C 882.44382 490.95415 883.00514 490.38547 883.40505 489.66256 C 883.82034 488.92427 884.02775 488.07049 884.02775 487.10148 L 884.02775 480.66466 L 881.48992 480.66466 L 881.48992 486.98624 C 881.48992 487.80143 881.28986 488.43206 880.88995 488.87811 C 880.50543 489.30878 879.94411 489.52407 879.20582 489.52407 C 878.72901 489.52407 878.31366 489.42378 877.9599 489.22383 C 877.62151 489.02387 877.36003 488.73928 877.17545 488.37013 C 877.00626 487.98561 876.92172 487.52457 876.92172 486.98624 L 876.92172 480.66466 L 874.38389 480.66466 z M 891.64124 482.833 C 892.27186 482.833 892.81795 482.9795 893.27938 483.27174 C 893.75619 483.5486 894.12533 483.94032 894.38681 484.44789 C 894.64828 484.95546 894.77903 485.5404 894.77903 486.20179 C 894.77903 487.18618 894.48708 487.99324 893.9026 488.62386 C 893.3335 489.25449 892.57948 489.57006 891.64124 489.57006 C 891.02599 489.57006 890.48042 489.43144 890.00361 489.15458 C 889.54218 488.86234 889.17304 488.46275 888.89618 487.95517 C 888.6347 487.4476 888.50396 486.86318 888.50396 486.20179 C 888.50396 485.5404 888.6347 484.95546 888.89618 484.44789 C 889.17304 483.94032 889.54218 483.5486 890.00361 483.27174 C 890.48042 482.9795 891.02599 482.833 891.64124 482.833 z M 917.1358 498.28322 L 917.1358 514.89461 L 919.67363 514.89461 L 919.67363 508.50379 C 919.67363 508.01159 919.78128 507.57315 919.99661 507.18862 C 920.21194 506.8041 920.51177 506.50427 920.8963 506.28894 C 921.28082 506.0736 921.71927 505.96596 922.21146 505.96596 C 922.94976 505.96596 923.5494 506.20435 924.01084 506.68116 C 924.48765 507.15797 924.72604 507.7655 924.72604 508.50379 L 924.72604 514.89461 L 927.26387 514.89461 L 927.26387 507.94982 C 927.26387 507.08848 927.07955 506.33497 926.71041 505.68897 C 926.34127 505.02759 925.83352 504.51248 925.18751 504.14333 C 924.5415 503.77418 923.80323 503.58936 922.97266 503.58936 C 922.15746 503.58936 921.41919 503.78154 920.75781 504.16607 C 920.335 504.40768 919.97785 504.7186 919.67363 505.08539 L 919.67363 498.28322 L 917.1358 498.28322 z M 835.39299 498.74469 L 835.39299 514.89461 L 838.04606 514.89461 L 838.04606 508.04232 L 838.72974 508.04232 L 844.2524 514.89461 L 847.59793 514.89461 L 841.92489 508.01855 C 842.73866 507.96557 843.47173 507.7867 844.11391 507.46561 C 844.88296 507.08108 845.47525 506.54287 845.89054 505.85072 C 846.32121 505.15857 846.5365 504.34312 846.5365 503.40487 C 846.5365 502.51278 846.32121 501.72094 845.89054 501.02879 C 845.47525 500.32127 844.88296 499.7673 844.11391 499.36739 C 843.34485 498.95211 842.45273 498.74469 841.43758 498.74469 L 838.04606 498.74469 L 835.39299 498.74469 z M 838.04606 501.05153 L 841.32234 501.05153 C 842.13754 501.05153 842.76817 501.28257 843.21422 501.74399 C 843.66027 502.20543 843.88343 502.7741 843.88343 503.45087 C 843.88343 504.20454 843.6524 504.79683 843.19096 505.2275 C 842.74491 505.64279 842.11428 505.85072 841.29909 505.85072 L 838.04606 505.85072 L 838.04606 501.05153 z M 853.89625 503.58936 C 852.83496 503.58936 851.86617 503.8435 850.98945 504.35107 C 850.12812 504.85865 849.44341 505.55071 848.93583 506.42743 C 848.42825 507.28877 848.17464 508.26543 848.17464 509.35748 C 848.17464 510.44954 848.42825 511.43407 848.93583 512.31079 C 849.45879 513.18751 850.15873 513.87958 851.03545 514.38715 C 851.92755 514.87934 852.92731 515.12509 854.03475 515.12509 C 854.89609 515.12509 855.71154 514.96388 856.48059 514.64088 C 857.24964 514.31787 857.90286 513.8411 858.4412 513.21048 L 856.82631 511.57233 C 856.48793 511.95686 856.07258 512.24881 855.58039 512.44877 C 855.10358 512.64872 854.58059 512.74901 854.01149 512.74901 C 853.35011 512.74901 852.76568 512.61039 852.25811 512.33353 C 851.75053 512.04129 851.3583 511.63382 851.08144 511.11086 C 850.94936 510.86137 850.8513 510.59117 850.78223 510.30316 L 859.04116 510.30316 C 859.08729 510.07244 859.11826 509.86503 859.13366 509.68046 C 859.16446 509.48051 859.17965 509.28832 859.17965 509.10375 C 859.17965 508.04246 858.94914 507.09625 858.4877 506.26568 C 858.04165 505.4351 857.4189 504.78137 856.61908 504.30456 C 855.83465 503.82775 854.92679 503.58936 853.89625 503.58936 z M 864.94778 503.58936 C 864.10182 503.58936 863.37091 503.72798 862.75566 504.00484 C 862.1558 504.2817 861.68689 504.67394 861.34851 505.18151 C 861.02551 505.68909 860.86379 506.29661 860.86379 507.00414 C 860.86379 507.66552 861.00241 508.20374 861.27927 508.61903 C 861.55613 509.03431 861.91003 509.36511 862.3407 509.61121 C 862.78675 509.84193 863.2483 510.02675 863.72511 510.16519 C 864.2173 510.30361 864.67833 510.44171 865.10901 510.58015 C 865.55505 510.70319 865.91683 510.85704 866.19369 511.04162 C 866.47055 511.22619 866.60866 511.48769 866.60866 511.82607 C 866.60866 512.14907 866.46268 512.39534 866.17044 512.56452 C 865.8782 512.73372 865.44763 512.81825 864.87853 512.81825 C 864.2479 512.81825 863.67871 512.71061 863.17114 512.49528 C 862.67895 512.26456 862.2405 511.92589 861.85597 511.47983 L 860.24109 513.09524 C 860.59485 513.52591 861.0102 513.89505 861.487 514.20266 C 861.96382 514.4949 862.4868 514.72542 863.0559 514.89461 C 863.625 515.04842 864.21729 515.12509 864.83254 515.12509 C 866.12454 515.12509 867.14741 514.81003 867.90108 514.17941 C 868.65476 513.54878 869.03125 512.695 869.03125 511.61833 C 869.03125 510.94156 868.89315 510.39547 868.61629 509.98018 C 868.33943 509.54951 867.97765 509.21136 867.5316 508.96526 C 867.10093 508.70379 866.63938 508.50373 866.14719 508.36529 C 865.67037 508.21149 865.20934 508.07287 864.76329 507.94982 C 864.33262 507.82677 863.97872 507.68079 863.70186 507.5116 C 863.425 507.34241 863.28638 507.10402 863.28638 506.7964 C 863.28638 506.50416 863.425 506.281 863.70186 506.12719 C 863.97872 505.97338 864.37096 505.89671 864.87853 505.89671 C 865.41687 505.89671 865.89365 505.99648 866.30893 506.19644 C 866.72422 506.39639 867.09335 506.69673 867.41636 507.09664 L 869.03125 505.48123 C 868.56981 504.85061 867.99327 504.3817 867.30112 504.07408 C 866.62435 503.75108 865.83988 503.58936 864.94778 503.58936 z M 876.13727 503.58936 C 875.07598 503.58936 874.10719 503.8435 873.23047 504.35107 C 872.36913 504.85865 871.68443 505.55071 871.17685 506.42743 C 870.66928 507.28877 870.41566 508.26543 870.41566 509.35748 C 870.41566 510.44954 870.66928 511.43407 871.17685 512.31079 C 871.69981 513.18751 872.39975 513.87958 873.27647 514.38715 C 874.16857 514.87934 875.16833 515.12509 876.27577 515.12509 C 877.13711 515.12509 877.95256 514.96388 878.72161 514.64088 C 879.49066 514.31787 880.1444 513.8411 880.68273 513.21048 L 879.06733 511.57233 C 878.72895 511.95686 878.31412 512.24881 877.82193 512.44877 C 877.34511 512.64872 876.82213 512.74901 876.25303 512.74901 C 875.59164 512.74901 875.00671 512.61039 874.49913 512.33353 C 873.99156 512.04129 873.59983 511.63382 873.32297 511.11086 C 873.19089 510.86137 873.09232 510.59117 873.02325 510.30316 L 881.28218 510.30316 C 881.32831 510.07244 881.35928 509.86503 881.37468 509.68046 C 881.40541 509.48051 881.42067 509.28832 881.42067 509.10375 C 881.42067 508.04246 881.19015 507.09625 880.72872 506.26568 C 880.28267 505.4351 879.65992 504.78137 878.8601 504.30456 C 878.07567 503.82775 877.16781 503.58936 876.13727 503.58936 z M 888.08848 503.58936 C 887.08871 503.58936 886.18136 503.85085 885.36617 504.37381 C 884.56635 504.88138 883.92785 505.57345 883.45104 506.45017 C 882.98961 507.31151 882.75909 508.28868 882.75909 509.38074 C 882.75909 510.45742 882.98961 511.43407 883.45104 512.31079 C 883.92785 513.17213 884.56635 513.85632 885.36617 514.3639 C 886.18136 514.87147 887.08871 515.12509 888.08848 515.12509 C 888.93443 515.12509 889.68794 514.94865 890.34933 514.59489 C 890.79423 514.34657 891.16734 514.03342 891.48001 513.66678 L 891.48001 514.89461 L 894.01784 514.89461 L 894.01784 503.82035 L 891.48001 503.82035 L 891.48001 505.0642 C 891.15794 504.69474 890.77714 504.38432 890.32659 504.14333 C 889.68058 503.77418 888.93443 503.58936 888.08848 503.58936 z M 902.25454 503.58936 C 900.9933 503.58936 900.0471 504.02781 899.41647 504.90452 C 899.39891 504.92911 899.38754 504.95908 899.37048 504.98411 L 899.37048 503.82035 L 896.83265 503.82035 L 896.83265 514.89461 L 899.37048 514.89461 L 899.37048 508.73426 C 899.37048 507.78064 899.60151 507.08122 900.06294 506.63517 C 900.52437 506.18912 901.10879 505.96596 901.81633 505.96596 C 902.13933 505.96596 902.42392 506.01216 902.67002 506.10445 C 902.91611 506.19674 903.13876 506.35059 903.33871 506.56592 L 905.00011 504.85853 C 904.61558 504.41248 904.20025 504.08955 903.75419 503.8896 C 903.30815 503.68965 902.80826 503.58936 902.25454 503.58936 z M 910.99871 503.58936 C 909.90666 503.58936 908.91425 503.8435 908.02215 504.35107 C 907.14543 504.85865 906.45337 505.55071 905.94579 506.42743 C 905.43822 507.28877 905.1846 508.26543 905.1846 509.35748 C 905.1846 510.43415 905.43822 511.41081 905.94579 512.28754 C 906.45337 513.16426 907.14543 513.85632 908.02215 514.3639 C 908.91425 514.87147 909.90666 515.12509 910.99871 515.12509 C 911.86005 515.12509 912.65976 514.96388 913.39805 514.64088 C 914.15172 514.30249 914.79022 513.82572 915.31318 513.21048 L 913.65178 511.52634 C 913.32877 511.91087 912.93653 512.20282 912.47511 512.40277 C 912.02905 512.58735 911.53705 512.67976 910.99871 512.67976 C 910.36809 512.67976 909.80677 512.54114 909.31458 512.26428 C 908.83776 511.97204 908.46076 511.5798 908.1839 511.08761 C 907.92242 510.58004 907.79167 510.00349 907.79167 509.35748 C 907.79167 508.6961 907.92242 508.11903 908.1839 507.62684 C 908.46076 507.13465 908.83776 506.75028 909.31458 506.47342 C 909.80677 506.18118 910.36809 506.0352 910.99871 506.0352 C 911.53705 506.0352 912.02905 506.13497 912.47511 506.33493 C 912.93653 506.5195 913.32877 506.8041 913.65178 507.18862 L 915.31318 505.50449 C 914.79022 504.88925 914.15172 504.42034 913.39805 504.09734 C 912.65976 503.75895 911.86005 503.58936 910.99871 503.58936 z M 853.85026 505.91997 C 854.4655 505.91997 854.98062 506.04284 855.3959 506.28894 C 855.82658 506.53503 856.15738 506.88894 856.38809 507.35037 C 856.51629 507.60674 856.60637 507.90397 856.67283 508.2268 L 850.79257 508.2268 C 850.85706 507.97 850.94306 507.72929 851.0587 507.5116 C 851.32018 507.00403 851.68931 506.61179 852.16613 506.33493 C 852.64294 506.05807 853.20426 505.91997 853.85026 505.91997 z M 876.09128 505.91997 C 876.70652 505.91997 877.22164 506.04284 877.63692 506.28894 C 878.0676 506.53503 878.3984 506.88894 878.62911 507.35037 C 878.75731 507.60674 878.84739 507.90397 878.91385 508.2268 L 873.0341 508.2268 C 873.0986 507.97001 873.18408 507.72928 873.29972 507.5116 C 873.5612 507.00403 873.93033 506.61179 874.40715 506.33493 C 874.88396 506.05807 875.44528 505.91997 876.09128 505.91997 z M 888.50396 505.98921 C 889.13458 505.98921 889.68067 506.13519 890.1421 506.42743 C 890.61892 506.70429 890.98805 507.09653 891.24953 507.6041 C 891.511 508.11167 891.64175 508.6961 891.64175 509.35748 C 891.64175 510.34187 891.34928 511.14945 890.7648 511.78007 C 890.1957 512.4107 889.4422 512.72575 888.50396 512.72575 C 887.88871 512.72575 887.34263 512.58765 886.86582 512.31079 C 886.40438 512.01855 886.03524 511.61844 885.75839 511.11086 C 885.49691 510.60329 885.36617 510.01887 885.36617 509.35748 C 885.36617 508.6961 885.49691 508.11167 885.75839 507.6041 C 886.03524 507.09653 886.40438 506.70429 886.86582 506.42743 C 887.34263 506.13519 887.88871 505.98921 888.50396 505.98921 z M 835.39299 521.90039 L 835.39299 538.0503 L 838.04606 538.0503 L 846.25951 538.0503 L 846.25951 535.62771 L 838.04606 535.62771 L 838.04606 530.96753 L 845.47506 530.96753 L 845.47506 528.63744 L 838.04606 528.63744 L 838.04606 524.32298 L 846.14427 524.32298 L 846.14427 521.90039 L 838.04606 521.90039 L 835.39299 521.90039 z M 874.42988 521.90039 C 873.99921 521.90039 873.63795 522.04636 873.34571 522.3386 C 873.06885 522.63084 872.93023 522.99262 872.93023 523.42329 C 872.93023 523.85396 873.06885 524.21522 873.34571 524.50746 C 873.63795 524.7997 873.99921 524.94568 874.42988 524.94568 C 874.87593 524.94568 875.23771 524.7997 875.51457 524.50746 C 875.79143 524.21522 875.92953 523.85396 875.92953 523.42329 C 875.92953 522.99262 875.79143 522.63084 875.51457 522.3386 C 875.23771 522.04636 874.87593 521.90039 874.42988 521.90039 z M 959.74871 522.36186 L 959.74871 526.97605 L 957.09564 526.97605 L 957.09564 529.2834 L 959.74871 529.2834 L 959.74871 538.0503 L 962.28654 538.0503 L 962.28654 529.2834 L 964.94012 529.2834 L 964.94012 526.97605 L 962.28654 526.97605 L 962.28654 522.36186 L 959.74871 522.36186 z M 854.49622 526.74557 C 853.68102 526.74557 852.94275 526.93775 852.28137 527.32228 C 851.85873 527.56378 851.50133 527.87398 851.19719 528.24057 L 851.19719 526.97605 L 848.65936 526.97605 L 848.65936 538.0503 L 851.19719 538.0503 L 851.19719 531.65948 C 851.19719 531.16729 851.30484 530.72884 851.52017 530.34432 C 851.7355 529.95979 852.03533 529.65996 852.41986 529.44463 C 852.80438 529.2293 853.24283 529.12165 853.73502 529.12165 C 854.47332 529.12165 855.07296 529.36004 855.5344 529.83685 C 856.01121 530.31367 856.2496 530.92119 856.2496 531.65948 L 856.2496 538.0503 L 858.78743 538.0503 L 858.78743 531.10603 C 858.78743 530.38312 858.60311 529.69105 858.23397 529.02967 C 857.86483 528.3529 857.35707 527.80681 856.71107 527.39152 C 856.06506 526.96085 855.32679 526.74557 854.49622 526.74557 z M 883.9585 526.74557 C 882.69726 526.74557 881.75157 527.1835 881.12095 528.06022 C 881.10339 528.0848 881.09202 528.11477 881.07496 528.1398 L 881.07496 526.97605 L 878.53713 526.97605 L 878.53713 538.0503 L 881.07496 538.0503 L 881.07496 531.89047 C 881.07496 530.93685 881.30547 530.23691 881.7669 529.79086 C 882.22834 529.34481 882.81276 529.12165 883.52029 529.12165 C 883.84328 529.12165 884.12788 529.16786 884.37398 529.26014 C 884.62008 529.35243 884.84324 529.50628 885.04319 529.72161 L 886.70407 528.01422 C 886.31954 527.56817 885.9042 527.24524 885.45815 527.04529 C 885.0121 526.84534 884.51222 526.74557 883.9585 526.74557 z M 892.67993 526.74557 C 891.60326 526.74557 890.6266 527.00706 889.74988 527.53002 C 888.87316 528.03759 888.17322 528.72178 887.65027 529.58312 C 887.14269 530.44446 886.88856 531.41377 886.88856 532.49044 C 886.88856 533.56711 887.14269 534.54377 887.65027 535.42049 C 888.17322 536.29721 888.87316 536.99663 889.74988 537.51959 C 890.6266 538.02716 891.60326 538.2813 892.67993 538.2813 C 893.77199 538.2813 894.75601 538.02716 895.63272 537.51959 C 896.50944 536.99663 897.20202 536.29721 897.7096 535.42049 C 898.23255 534.54377 898.49405 533.56711 898.49405 532.49044 C 898.49405 531.41377 898.23255 530.44446 897.7096 529.58312 C 897.20202 528.7064 896.50944 528.01434 895.63272 527.50676 C 894.75601 526.99919 893.77199 526.74557 892.67993 526.74557 z M 906.43051 526.74557 C 905.61532 526.74557 904.87705 526.93775 904.21566 527.32228 C 903.7927 527.56397 903.43525 527.87463 903.13097 528.2416 L 903.13097 526.97605 L 900.59314 526.97605 L 900.59314 538.0503 L 903.13097 538.0503 L 903.13097 531.65948 C 903.13097 531.16729 903.23862 530.72884 903.45395 530.34432 C 903.66929 529.95979 903.96963 529.65996 904.35416 529.44463 C 904.73868 529.2293 905.1766 529.12165 905.6688 529.12165 C 906.40709 529.12165 907.00726 529.36004 907.46869 529.83685 C 907.94551 530.31367 908.1839 530.92119 908.1839 531.65948 L 908.1839 538.0503 L 910.72173 538.0503 L 910.72173 531.10603 C 910.72173 530.38312 910.53742 529.69105 910.16827 529.02967 C 909.79912 528.3529 909.29137 527.80681 908.64537 527.39152 C 907.99936 526.96085 907.26109 526.74557 906.43051 526.74557 z M 919.02768 526.74557 C 918.24325 526.74557 917.53543 526.922 916.90481 527.27577 C 916.49368 527.49637 916.14389 527.7824 915.84389 528.12068 L 915.84389 526.97605 L 913.30555 526.97605 L 913.30555 538.0503 L 915.84389 538.0503 L 915.84389 531.45174 C 915.84389 530.95955 915.95153 530.54473 916.16687 530.20634 C 916.3822 529.85257 916.66629 529.5832 917.02005 529.39864 C 917.3892 529.21406 917.80454 529.12165 918.26597 529.12165 C 918.94273 529.12165 919.51192 529.32958 919.97336 529.74487 C 920.43479 530.14477 920.66582 530.71345 920.66582 531.45174 L 920.66582 538.0503 L 923.20365 538.0503 L 923.20365 531.45174 C 923.20365 530.95955 923.31129 530.54473 923.52663 530.20634 C 923.74196 529.85257 924.03391 529.5832 924.40306 529.39864 C 924.7722 529.21406 925.18019 529.12165 925.62624 529.12165 C 926.30301 529.12165 926.87168 529.32958 927.33311 529.74487 C 927.79455 530.14477 928.02558 530.71345 928.02558 531.45174 L 928.02558 538.0503 L 930.56341 538.0503 L 930.56341 530.89829 C 930.56341 530.03695 930.37123 529.29867 929.9867 528.68343 C 929.60217 528.06819 929.08654 527.59141 928.44054 527.25303 C 927.79453 526.91464 927.07201 526.74557 926.2722 526.74557 C 925.48776 526.74557 924.76472 526.922 924.10334 527.27577 C 923.49662 527.59357 922.99553 528.03874 922.59232 528.60075 C 922.22888 528.02726 921.7507 527.57534 921.15003 527.25303 C 920.51941 526.91464 919.81212 526.74557 919.02768 526.74557 z M 938.1769 526.74557 C 937.11561 526.74557 936.14682 526.99919 935.2701 527.50676 C 934.40876 528.01434 933.72405 528.7064 933.21648 529.58312 C 932.7089 530.44446 932.45528 531.42112 932.45528 532.51318 C 932.45528 533.60523 932.7089 534.58976 933.21648 535.46648 C 933.73943 536.3432 934.43937 537.03527 935.31609 537.54284 C 936.2082 538.03504 937.20796 538.2813 938.31539 538.2813 C 939.17673 538.2813 939.99218 538.11957 940.76124 537.79657 C 941.53029 537.47357 942.1835 536.99679 942.72184 536.36617 L 941.10695 534.72803 C 940.76857 535.11255 940.35323 535.40502 939.86103 535.60498 C 939.38422 535.80493 938.86124 535.9047 938.29214 535.9047 C 937.63075 535.9047 937.04633 535.7666 936.53875 535.48974 C 936.03117 535.1975 935.63894 534.78952 935.36208 534.26656 C 935.23025 534.01754 935.13503 533.74676 935.06598 533.45937 L 943.3218 533.45937 C 943.36794 533.22865 943.3989 533.02073 943.4143 532.83615 C 943.44504 532.6362 943.4603 532.44402 943.4603 532.25944 C 943.4603 531.19815 943.22978 530.25246 942.76835 529.42189 C 942.3223 528.59131 941.69902 527.93758 940.89921 527.46077 C 940.11478 526.98396 939.20743 526.74557 938.1769 526.74557 z M 951.32752 526.74557 C 950.51232 526.74557 949.77405 526.93775 949.11266 527.32228 C 948.68985 527.56389 948.33271 527.87429 948.02849 528.24108 L 948.02849 526.97605 L 945.49066 526.97605 L 945.49066 538.0503 L 948.02849 538.0503 L 948.02849 531.65948 C 948.02849 531.16729 948.13613 530.72884 948.35147 530.34432 C 948.5668 529.95979 948.86663 529.65996 949.25116 529.44463 C 949.63568 529.2293 950.07413 529.12165 950.56632 529.12165 C 951.30461 529.12165 951.90479 529.36004 952.36621 529.83685 C 952.84303 530.31367 953.08141 530.92119 953.08141 531.65948 L 953.08141 538.0503 L 955.61924 538.0503 L 955.61924 531.10603 C 955.61924 530.38312 955.43442 529.69105 955.06527 529.02967 C 954.69613 528.3529 954.18888 527.80681 953.54288 527.39152 C 952.89688 526.96085 952.1581 526.74557 951.32752 526.74557 z M 860.0566 526.97605 L 865.10901 538.0503 L 866.58592 538.0503 L 871.63832 526.97605 L 868.93926 526.97605 L 865.89604 534.0583 L 862.87142 526.97605 L 860.0566 526.97605 z M 873.16123 526.97605 L 873.16123 538.0503 L 875.69906 538.0503 L 875.69906 526.97605 L 873.16123 526.97605 z M 938.13091 529.07566 C 938.74614 529.07566 939.26125 529.19853 939.67655 529.44463 C 940.10721 529.69072 940.43802 530.04463 940.66873 530.50606 C 940.79687 530.7623 940.88701 531.05985 940.95347 531.38249 L 935.08045 531.38249 C 935.14486 531.12747 935.22439 530.88367 935.33934 530.66729 C 935.60082 530.15972 935.96996 529.76748 936.44677 529.49062 C 936.92358 529.21376 937.4849 529.07566 938.13091 529.07566 z M 892.67993 529.1909 C 893.31055 529.1909 893.864 529.33687 894.34081 529.62911 C 894.81763 529.90597 895.19463 530.29086 895.47149 530.78305 C 895.74835 531.27524 895.88646 531.84443 895.88646 532.49044 C 895.88646 533.13644 895.74835 533.71299 895.47149 534.22056 C 895.21001 534.72814 894.83301 535.12825 894.34081 535.42049 C 893.864 535.69735 893.31055 535.83545 892.67993 535.83545 C 892.06469 535.83545 891.51073 535.69735 891.01854 535.42049 C 890.54172 535.12825 890.16471 534.72814 889.88786 534.22056 C 889.62638 533.71299 889.49563 533.13644 889.49563 532.49044 C 889.49563 531.84443 889.62638 531.27524 889.88786 530.78305 C 890.16471 530.29086 890.54172 529.90597 891.01854 529.62911 C 891.51073 529.33687 892.06469 529.1909 892.67993 529.1909 z " /><path
           d="m 824.87695,446.91406 v 96.70117 h 0.79297 v -96.70117 z"
           id="path8" /></g></g></g></svg>
